<svg xmlns="http://www.w3.org/2000/svg" xmlns:v="https://svgstorm.com"
viewBox = "0 0 200 200"
width="200"
height="200">
<g fill="None" fill-opacity="0.0" stroke="#292641" stroke-opacity="1.00" stroke-width="0.3"><path d="
M 0.00 200.00 
L 200.00 200.00
L 200.00 199.00
C 133.67 199.00 67.33 199.00 1.00 199.00
C 1.00 133.00 1.00 67.00 1.00 1.00
C 67.33 1.00 133.67 1.00 200.00 1.00
L 200.00 0.00
L 0.00 0.00
L 0.00 200.00 Z"/>
</g>
<g fill="None" fill-opacity="0.0" stroke="#191631" stroke-opacity="1.00" stroke-width="0.3"><path d="
M 200.00 199.00 
L 200.00 1.00
C 133.67 1.00 67.33 1.00 1.00 1.00
C 1.00 67.00 1.00 133.00 1.00 199.00
C 67.33 199.00 133.67 199.00 200.00 199.00
M 29.00 100.00 
C 30.57 101.57 30.67 106.48 29.00 108.00
C 31.02 114.73 36.63 111.12 38.00 107.00
C 39.27 100.43 37.10 93.00 39.00 87.00
C 41.06 80.48 49.59 77.09 54.25 83.75 C 58.91 90.42 53.89 102.93 52.00 90.00 C 50.11 77.07 40.50 88.72 43.00 96.00 C 45.50 103.28 43.90 113.08 35.97 114.97 C 28.05 116.87 21.82 107.01 25.00 99.00
C 26.28 99.28 28.50 98.24 29.00 100.00
M 100.00 98.00 
C 100.62 100.05 103.72 111.31 98.92 111.92 C 94.11 112.52 96.78 100.83 96.00 98.00
C 93.98 93.37 88.98 93.20 87.08 98.08 C 85.18 102.96 90.54 111.83 83.00 112.00
C 83.66 102.50 81.67 91.68 84.00 83.00
C 87.57 84.47 87.15 88.57 87.00 92.00
C 91.81 89.00 100.13 91.72 100.00 98.00
M 152.00 112.00 
C 145.53 112.63 148.46 104.89 148.00 100.00 C 147.54 95.11 148.34 88.08 148.00 83.00
C 156.63 87.43 149.84 103.03 152.00 112.00
M 49.00 88.00 
C 51.15 90.15 50.49 98.77 49.00 101.00
C 43.29 109.57 43.12 82.12 49.00 88.00
M 78.00 97.00 
C 74.22 89.90 65.33 97.83 72.03 98.97 C 78.73 100.12 81.94 105.37 78.23 110.23 C 74.52 115.09 64.47 110.84 67.00 106.00
C 69.86 107.08 72.50 108.80 76.00 108.00
C 76.53 102.01 63.05 101.57 66.00 94.00 C 68.95 86.43 82.71 91.97 78.00 97.00
M 122.00 98.00 
C 123.78 103.87 124.59 110.42 119.00 111.00
C 111.85 111.75 100.05 109.35 103.00 98.00 C 105.95 86.65 119.60 90.09 122.00 98.00
M 131.00 111.00 
C 128.13 112.47 131.99 118.78 129.00 120.00
C 127.62 120.56 126.77 119.78 126.00 119.00
C 122.80 115.77 125.09 102.66 126.00 99.00
C 127.36 93.51 132.27 88.65 138.67 91.33 C 145.07 94.01 145.93 98.96 144.67 105.67 C 143.41 112.38 135.15 110.46 131.00 111.00
M 174.00 99.00 
C 175.85 106.48 176.73 110.72 169.00 111.00
C 160.39 112.25 151.49 106.92 155.78 96.78 C 160.07 86.64 171.89 90.49 174.00 99.00
M 32.00 93.00 
C 36.80 91.74 38.63 105.76 35.22 108.22 C 31.81 110.68 31.11 96.06 32.00 93.00
M 149.00 114.00 
C 147.81 116.21 146.56 118.56 144.00 119.00
C 142.86 115.57 145.39 111.03 149.00 114.00
M 154.00 113.00 
C 156.87 113.03 157.63 119.73 153.77 119.77 C 149.91 119.80 150.01 112.96 154.00 113.00
M 175.00 114.00 
C 171.58 115.65 175.89 116.01 175.00 119.00
C 172.27 118.22 170.64 111.96 175.00 114.00
M 134.00 114.00 
C 135.21 120.27 131.10 117.91 134.00 114.00
M 142.00 119.00 
C 137.80 114.80 136.91 121.27 137.00 114.00
C 141.08 118.76 142.22 111.34 142.00 119.00
M 160.00 120.00 
C 159.53 117.67 160.81 117.02 159.00 114.00
C 162.08 113.17 164.55 119.53 160.00 120.00 Z"/>
</g>
<g fill="None" fill-opacity="0.0" stroke="#E7D0CE" stroke-opacity="1.00" stroke-width="0.3"><path d="
M 39.00 87.00 
C 37.82 93.59 39.99 101.02 38.00 107.00
C 36.63 111.12 31.02 114.73 29.00 108.00
C 28.37 105.91 30.14 101.81 29.00 100.00
C 28.50 98.24 26.28 99.28 25.00 99.00
C 21.82 107.01 28.05 116.87 35.97 114.97 C 43.90 113.08 45.50 103.28 43.00 96.00 C 40.50 88.72 50.11 77.07 52.00 90.00 C 53.89 102.93 58.91 90.42 54.25 83.75 C 49.59 77.09 41.06 80.48 39.00 87.00 Z"/>
</g>
<g fill="None" fill-opacity="0.0" stroke="#E4CECD" stroke-opacity="1.00" stroke-width="0.3"><path d="
M 96.00 98.00 
C 97.61 101.68 96.87 106.63 97.00 111.00
C 102.83 110.99 98.81 101.93 100.00 98.00
C 100.13 91.72 91.81 89.00 87.00 92.00
C 87.15 88.57 87.57 84.47 84.00 83.00
C 81.67 91.68 83.66 102.50 83.00 112.00
C 90.54 111.83 85.18 102.96 87.08 98.08 C 88.98 93.20 93.98 93.37 96.00 98.00 Z"/>
</g>
<g fill="None" fill-opacity="0.0" stroke="#DDC6C5" stroke-opacity="1.00" stroke-width="0.3"><path d="
M 152.00 112.00 
C 149.84 103.03 156.63 87.43 148.00 83.00
C 148.34 88.08 147.54 95.11 148.00 100.00 C 148.46 104.89 145.53 112.63 152.00 112.00 Z"/>
</g>
<g fill="None" fill-opacity="0.0" stroke="#8C7C85" stroke-opacity="1.00" stroke-width="0.3"><path d="
M 38.00 107.00 
C 39.99 101.02 37.82 93.59 39.00 87.00
C 37.10 93.00 39.27 100.43 38.00 107.00 Z"/>
</g>
<g fill="None" fill-opacity="0.0" stroke="#E0CCCE" stroke-opacity="1.00" stroke-width="0.3"><path d="
M 49.00 101.00 
C 49.67 99.42 49.88 89.41 49.00 88.00
C 43.12 82.12 43.29 109.57 49.00 101.00 Z"/>
</g>
<g fill="None" fill-opacity="0.0" stroke="#72636D" stroke-opacity="1.00" stroke-width="0.3"><path d="
M 49.00 101.00 
C 50.49 98.77 51.15 90.15 49.00 88.00
C 49.88 89.41 49.67 99.42 49.00 101.00 Z"/>
</g>
<g fill="None" fill-opacity="0.0" stroke="#E3CFCB" stroke-opacity="1.00" stroke-width="0.3"><path d="
M 78.00 97.00 
C 82.71 91.97 68.95 86.43 66.00 94.00 C 63.05 101.57 76.53 102.01 76.00 108.00
C 72.50 108.80 69.86 107.08 67.00 106.00
C 64.47 110.84 74.52 115.09 78.23 110.23 C 81.94 105.37 78.73 100.12 72.03 98.97 C 65.33 97.83 74.22 89.90 78.00 97.00 Z"/>
</g>
<g fill="None" fill-opacity="0.0" stroke="#E8D1CF" stroke-opacity="1.00" stroke-width="0.3"><path d="
M 119.00 111.00 
C 119.80 110.60 121.16 111.32 122.00 111.00
C 122.00 106.67 122.00 102.33 122.00 98.00
C 119.60 90.09 105.95 86.65 103.00 98.00 C 100.05 109.35 111.85 111.75 119.00 111.00
M 114.00 94.00 
C 121.24 95.35 120.19 109.23 111.99 107.99 C 103.79 106.75 106.13 92.53 114.00 94.00 Z"/>
</g>
<g fill="None" fill-opacity="0.0" stroke="#E8D1CF" stroke-opacity="1.00" stroke-width="0.3"><path d="
M 126.00 99.00 
C 125.53 102.78 124.10 115.86 126.00 119.00
C 126.77 119.78 127.62 120.56 129.00 120.00
C 129.35 115.52 127.71 111.43 131.00 111.00
C 135.15 110.46 143.41 112.38 144.67 105.67 C 145.93 98.96 145.07 94.01 138.67 91.33 C 132.27 88.65 127.36 93.51 126.00 99.00
M 139.00 95.00 
C 145.50 97.97 140.06 111.19 132.78 107.22 C 125.50 103.26 130.71 91.21 139.00 95.00 Z"/>
</g>
<g fill="None" fill-opacity="0.0" stroke="#E9D2CF" stroke-opacity="1.00" stroke-width="0.3"><path d="
M 169.00 111.00 
C 170.29 110.81 171.97 110.33 174.00 111.00
C 174.00 107.00 174.00 103.00 174.00 99.00
C 171.89 90.49 160.07 86.64 155.78 96.78 C 151.49 106.92 160.39 112.25 169.00 111.00
M 167.00 94.00 
C 174.08 96.32 170.91 110.65 163.00 108.00 C 155.08 105.34 159.34 91.49 167.00 94.00 Z"/>
</g>
<g fill="None" fill-opacity="0.0" stroke="#EED6D2" stroke-opacity="1.00" stroke-width="0.3"><path d="
M 32.00 93.00 
C 31.11 96.06 31.81 110.68 35.22 108.22 C 38.63 105.76 36.80 91.74 32.00 93.00 Z"/>
</g>
<g fill="None" fill-opacity="0.0" stroke="#231C31" stroke-opacity="1.00" stroke-width="0.3"><path d="
M 114.00 94.00 
C 106.13 92.53 103.79 106.75 111.99 107.99 C 120.19 109.23 121.24 95.35 114.00 94.00 Z"/>
</g>
<g fill="None" fill-opacity="0.0" stroke="#231D33" stroke-opacity="1.00" stroke-width="0.3"><path d="
M 167.00 94.00 
C 159.34 91.49 155.08 105.34 163.00 108.00 C 170.91 110.65 174.08 96.32 167.00 94.00 Z"/>
</g>
<g fill="None" fill-opacity="0.0" stroke="#231D33" stroke-opacity="1.00" stroke-width="0.3"><path d="
M 139.00 95.00 
C 130.71 91.21 125.50 103.26 132.78 107.22 C 140.06 111.19 145.50 97.97 139.00 95.00 Z"/>
</g>
<g fill="None" fill-opacity="0.0" stroke="#60535D" stroke-opacity="1.00" stroke-width="0.3"><path d="
M 100.00 98.00 
C 98.81 101.93 102.83 110.99 97.00 111.00
C 96.87 106.63 97.61 101.68 96.00 98.00
C 96.78 100.83 94.11 112.52 98.92 111.92 C 103.72 111.31 100.62 100.05 100.00 98.00 Z"/>
</g>
<g fill="None" fill-opacity="0.0" stroke="#887A83" stroke-opacity="1.00" stroke-width="0.3"><path d="
M 119.00 111.00 
C 124.59 110.42 123.78 103.87 122.00 98.00
C 122.00 102.33 122.00 106.67 122.00 111.00
C 121.16 111.32 119.80 110.60 119.00 111.00 Z"/>
</g>
<g fill="None" fill-opacity="0.0" stroke="#655962" stroke-opacity="1.00" stroke-width="0.3"><path d="
M 126.00 119.00 
C 124.10 115.86 125.53 102.78 126.00 99.00
C 125.09 102.66 122.80 115.77 126.00 119.00 Z"/>
</g>
<g fill="None" fill-opacity="0.0" stroke="#7B6C75" stroke-opacity="1.00" stroke-width="0.3"><path d="
M 169.00 111.00 
C 176.73 110.72 175.85 106.48 174.00 99.00
C 174.00 103.00 174.00 107.00 174.00 111.00
C 171.97 110.33 170.29 110.81 169.00 111.00 Z"/>
</g>
<g fill="None" fill-opacity="0.0" stroke="#413038" stroke-opacity="1.00" stroke-width="0.3"><path d="
M 29.00 108.00 
C 30.67 106.48 30.57 101.57 29.00 100.00
C 30.14 101.81 28.37 105.91 29.00 108.00 Z"/>
</g>
<g fill="None" fill-opacity="0.0" stroke="#68575F" stroke-opacity="1.00" stroke-width="0.3"><path d="
M 129.00 120.00 
C 131.99 118.78 128.13 112.47 131.00 111.00
C 127.71 111.43 129.35 115.52 129.00 120.00 Z"/>
</g>
<g fill="None" fill-opacity="0.0" stroke="#534C60" stroke-opacity="1.00" stroke-width="0.3"><path d="
M 149.00 114.00 
C 145.39 111.03 142.86 115.57 144.00 119.00
C 146.56 118.56 147.81 116.21 149.00 114.00
M 148.00 114.00 
C 145.74 118.60 143.05 113.99 148.00 114.00 Z"/>
</g>
<g fill="None" fill-opacity="0.0" stroke="#7E778B" stroke-opacity="1.00" stroke-width="0.3"><path d="
M 154.00 113.00 
C 150.01 112.96 149.91 119.80 153.77 119.77 C 157.63 119.73 156.87 113.03 154.00 113.00
M 155.00 115.00 
C 156.21 116.21 153.94 119.27 152.32 117.66 C 150.70 116.05 153.88 113.88 155.00 115.00 Z"/>
</g>
<g fill="None" fill-opacity="0.0" stroke="#888094" stroke-opacity="1.00" stroke-width="0.3"><path d="
M 175.00 114.00 
C 170.64 111.96 172.27 118.22 175.00 119.00
C 175.89 116.01 171.58 115.65 175.00 114.00 Z"/>
</g>
<g fill="None" fill-opacity="0.0" stroke="#9896AA" stroke-opacity="1.00" stroke-width="0.3"><path d="
M 134.00 114.00 
C 131.10 117.91 135.21 120.27 134.00 114.00 Z"/>
</g>
<g fill="None" fill-opacity="0.0" stroke="#8E8497" stroke-opacity="1.00" stroke-width="0.3"><path d="
M 142.00 119.00 
C 142.22 111.34 141.08 118.76 137.00 114.00
C 136.91 121.27 137.80 114.80 142.00 119.00 Z"/>
</g>
<g fill="None" fill-opacity="0.0" stroke="#8D8699" stroke-opacity="1.00" stroke-width="0.3"><path d="
M 148.00 114.00 
C 143.05 113.99 145.74 118.60 148.00 114.00 Z"/>
</g>
<g fill="None" fill-opacity="0.0" stroke="#81788D" stroke-opacity="1.00" stroke-width="0.3"><path d="
M 160.00 120.00 
C 164.55 119.53 162.08 113.17 159.00 114.00
C 160.81 117.02 159.53 117.67 160.00 120.00 Z"/>
</g>
<g fill="None" fill-opacity="0.0" stroke="#1E1528" stroke-opacity="1.00" stroke-width="0.3"><path d="
M 155.00 115.00 
C 153.88 113.88 150.70 116.05 152.32 117.66 C 153.94 119.27 156.21 116.21 155.00 115.00 Z"/>
</g>
<g fill="#292641" fill-opacity="1.00" stroke="None">
<path d="
M 0.00 200.00 
L 200.00 200.00
L 200.00 199.00
C 133.67 199.00 67.33 199.00 1.00 199.00
C 1.00 133.00 1.00 67.00 1.00 1.00
C 67.33 1.00 133.67 1.00 200.00 1.00
L 200.00 0.00
L 0.00 0.00
L 0.00 200.00 Z"/>
</g>
<g fill="#191631" fill-opacity="1.00" stroke="None">
<path d="
M 200.00 199.00 
L 200.00 1.00
C 133.67 1.00 67.33 1.00 1.00 1.00
C 1.00 67.00 1.00 133.00 1.00 199.00
C 67.33 199.00 133.67 199.00 200.00 199.00
M 29.00 100.00 
C 30.57 101.57 30.67 106.48 29.00 108.00
C 31.02 114.73 36.63 111.12 38.00 107.00
C 39.27 100.43 37.10 93.00 39.00 87.00
C 41.06 80.48 49.59 77.09 54.25 83.75 C 58.91 90.42 53.89 102.93 52.00 90.00 C 50.11 77.07 40.50 88.72 43.00 96.00 C 45.50 103.28 43.90 113.08 35.97 114.97 C 28.05 116.87 21.82 107.01 25.00 99.00
C 26.28 99.28 28.50 98.24 29.00 100.00
M 100.00 98.00 
C 100.62 100.05 103.72 111.31 98.92 111.92 C 94.11 112.52 96.78 100.83 96.00 98.00
C 93.98 93.37 88.98 93.20 87.08 98.08 C 85.18 102.96 90.54 111.83 83.00 112.00
C 83.66 102.50 81.67 91.68 84.00 83.00
C 87.57 84.47 87.15 88.57 87.00 92.00
C 91.81 89.00 100.13 91.72 100.00 98.00
M 152.00 112.00 
C 145.53 112.63 148.46 104.89 148.00 100.00 C 147.54 95.11 148.34 88.08 148.00 83.00
C 156.63 87.43 149.84 103.03 152.00 112.00
M 49.00 88.00 
C 51.15 90.15 50.49 98.77 49.00 101.00
C 43.29 109.57 43.12 82.12 49.00 88.00
M 78.00 97.00 
C 74.22 89.90 65.33 97.83 72.03 98.97 C 78.73 100.12 81.94 105.37 78.23 110.23 C 74.52 115.09 64.47 110.84 67.00 106.00
C 69.86 107.08 72.50 108.80 76.00 108.00
C 76.53 102.01 63.05 101.57 66.00 94.00 C 68.95 86.43 82.71 91.97 78.00 97.00
M 122.00 98.00 
C 123.78 103.87 124.59 110.42 119.00 111.00
C 111.85 111.75 100.05 109.35 103.00 98.00 C 105.95 86.65 119.60 90.09 122.00 98.00
M 131.00 111.00 
C 128.13 112.47 131.99 118.78 129.00 120.00
C 127.62 120.56 126.77 119.78 126.00 119.00
C 122.80 115.77 125.09 102.66 126.00 99.00
C 127.36 93.51 132.27 88.65 138.67 91.33 C 145.07 94.01 145.93 98.96 144.67 105.67 C 143.41 112.38 135.15 110.46 131.00 111.00
M 174.00 99.00 
C 175.85 106.48 176.73 110.72 169.00 111.00
C 160.39 112.25 151.49 106.92 155.78 96.78 C 160.07 86.64 171.89 90.49 174.00 99.00
M 32.00 93.00 
C 36.80 91.74 38.63 105.76 35.22 108.22 C 31.81 110.68 31.11 96.06 32.00 93.00
M 149.00 114.00 
C 147.81 116.21 146.56 118.56 144.00 119.00
C 142.86 115.57 145.39 111.03 149.00 114.00
M 154.00 113.00 
C 156.87 113.03 157.63 119.73 153.77 119.77 C 149.91 119.80 150.01 112.96 154.00 113.00
M 175.00 114.00 
C 171.58 115.65 175.89 116.01 175.00 119.00
C 172.27 118.22 170.64 111.96 175.00 114.00
M 134.00 114.00 
C 135.21 120.27 131.10 117.91 134.00 114.00
M 142.00 119.00 
C 137.80 114.80 136.91 121.27 137.00 114.00
C 141.08 118.76 142.22 111.34 142.00 119.00
M 160.00 120.00 
C 159.53 117.67 160.81 117.02 159.00 114.00
C 162.08 113.17 164.55 119.53 160.00 120.00 Z"/>
</g>
<g fill="#E7D0CE" fill-opacity="1.00" stroke="None">
<path d="
M 39.00 87.00 
C 37.82 93.59 39.99 101.02 38.00 107.00
C 36.63 111.12 31.02 114.73 29.00 108.00
C 28.37 105.91 30.14 101.81 29.00 100.00
C 28.50 98.24 26.28 99.28 25.00 99.00
C 21.82 107.01 28.05 116.87 35.97 114.97 C 43.90 113.08 45.50 103.28 43.00 96.00 C 40.50 88.72 50.11 77.07 52.00 90.00 C 53.89 102.93 58.91 90.42 54.25 83.75 C 49.59 77.09 41.06 80.48 39.00 87.00 Z"/>
</g>
<g fill="#E4CECD" fill-opacity="1.00" stroke="None">
<path d="
M 96.00 98.00 
C 97.61 101.68 96.87 106.63 97.00 111.00
C 102.83 110.99 98.81 101.93 100.00 98.00
C 100.13 91.72 91.81 89.00 87.00 92.00
C 87.15 88.57 87.57 84.47 84.00 83.00
C 81.67 91.68 83.66 102.50 83.00 112.00
C 90.54 111.83 85.18 102.96 87.08 98.08 C 88.98 93.20 93.98 93.37 96.00 98.00 Z"/>
</g>
<g fill="#DDC6C5" fill-opacity="1.00" stroke="None">
<path d="
M 152.00 112.00 
C 149.84 103.03 156.63 87.43 148.00 83.00
C 148.34 88.08 147.54 95.11 148.00 100.00 C 148.46 104.89 145.53 112.63 152.00 112.00 Z"/>
</g>
<g fill="#8C7C85" fill-opacity="1.00" stroke="None">
<path d="
M 38.00 107.00 
C 39.99 101.02 37.82 93.59 39.00 87.00
C 37.10 93.00 39.27 100.43 38.00 107.00 Z"/>
</g>
<g fill="#E0CCCE" fill-opacity="1.00" stroke="None">
<path d="
M 49.00 101.00 
C 49.67 99.42 49.88 89.41 49.00 88.00
C 43.12 82.12 43.29 109.57 49.00 101.00 Z"/>
</g>
<g fill="#72636D" fill-opacity="1.00" stroke="None">
<path d="
M 49.00 101.00 
C 50.49 98.77 51.15 90.15 49.00 88.00
C 49.88 89.41 49.67 99.42 49.00 101.00 Z"/>
</g>
<g fill="#E3CFCB" fill-opacity="1.00" stroke="None">
<path d="
M 78.00 97.00 
C 82.71 91.97 68.95 86.43 66.00 94.00 C 63.05 101.57 76.53 102.01 76.00 108.00
C 72.50 108.80 69.86 107.08 67.00 106.00
C 64.47 110.84 74.52 115.09 78.23 110.23 C 81.94 105.37 78.73 100.12 72.03 98.97 C 65.33 97.83 74.22 89.90 78.00 97.00 Z"/>
</g>
<g fill="#E8D1CF" fill-opacity="1.00" stroke="None">
<path d="
M 119.00 111.00 
C 119.80 110.60 121.16 111.32 122.00 111.00
C 122.00 106.67 122.00 102.33 122.00 98.00
C 119.60 90.09 105.95 86.65 103.00 98.00 C 100.05 109.35 111.85 111.75 119.00 111.00
M 114.00 94.00 
C 121.24 95.35 120.19 109.23 111.99 107.99 C 103.79 106.75 106.13 92.53 114.00 94.00 Z"/>
</g>
<g fill="#E8D1CF" fill-opacity="1.00" stroke="None">
<path d="
M 126.00 99.00 
C 125.53 102.78 124.10 115.86 126.00 119.00
C 126.77 119.78 127.62 120.56 129.00 120.00
C 129.35 115.52 127.71 111.43 131.00 111.00
C 135.15 110.46 143.41 112.38 144.67 105.67 C 145.93 98.96 145.07 94.01 138.67 91.33 C 132.27 88.65 127.36 93.51 126.00 99.00
M 139.00 95.00 
C 145.50 97.97 140.06 111.19 132.78 107.22 C 125.50 103.26 130.71 91.21 139.00 95.00 Z"/>
</g>
<g fill="#E9D2CF" fill-opacity="1.00" stroke="None">
<path d="
M 169.00 111.00 
C 170.29 110.81 171.97 110.33 174.00 111.00
C 174.00 107.00 174.00 103.00 174.00 99.00
C 171.89 90.49 160.07 86.64 155.78 96.78 C 151.49 106.92 160.39 112.25 169.00 111.00
M 167.00 94.00 
C 174.08 96.32 170.91 110.65 163.00 108.00 C 155.08 105.34 159.34 91.49 167.00 94.00 Z"/>
</g>
<g fill="#EED6D2" fill-opacity="1.00" stroke="None">
<path d="
M 32.00 93.00 
C 31.11 96.06 31.81 110.68 35.22 108.22 C 38.63 105.76 36.80 91.74 32.00 93.00 Z"/>
</g>
<g fill="#231C31" fill-opacity="1.00" stroke="None">
<path d="
M 114.00 94.00 
C 106.13 92.53 103.79 106.75 111.99 107.99 C 120.19 109.23 121.24 95.35 114.00 94.00 Z"/>
</g>
<g fill="#231D33" fill-opacity="1.00" stroke="None">
<path d="
M 167.00 94.00 
C 159.34 91.49 155.08 105.34 163.00 108.00 C 170.91 110.65 174.08 96.32 167.00 94.00 Z"/>
</g>
<g fill="#231D33" fill-opacity="1.00" stroke="None">
<path d="
M 139.00 95.00 
C 130.71 91.21 125.50 103.26 132.78 107.22 C 140.06 111.19 145.50 97.97 139.00 95.00 Z"/>
</g>
<g fill="#60535D" fill-opacity="1.00" stroke="None">
<path d="
M 100.00 98.00 
C 98.81 101.93 102.83 110.99 97.00 111.00
C 96.87 106.63 97.61 101.68 96.00 98.00
C 96.78 100.83 94.11 112.52 98.92 111.92 C 103.72 111.31 100.62 100.05 100.00 98.00 Z"/>
</g>
<g fill="#887A83" fill-opacity="1.00" stroke="None">
<path d="
M 119.00 111.00 
C 124.59 110.42 123.78 103.87 122.00 98.00
C 122.00 102.33 122.00 106.67 122.00 111.00
C 121.16 111.32 119.80 110.60 119.00 111.00 Z"/>
</g>
<g fill="#655962" fill-opacity="1.00" stroke="None">
<path d="
M 126.00 119.00 
C 124.10 115.86 125.53 102.78 126.00 99.00
C 125.09 102.66 122.80 115.77 126.00 119.00 Z"/>
</g>
<g fill="#7B6C75" fill-opacity="1.00" stroke="None">
<path d="
M 169.00 111.00 
C 176.73 110.72 175.85 106.48 174.00 99.00
C 174.00 103.00 174.00 107.00 174.00 111.00
C 171.97 110.33 170.29 110.81 169.00 111.00 Z"/>
</g>
<g fill="#413038" fill-opacity="1.00" stroke="None">
<path d="
M 29.00 108.00 
C 30.67 106.48 30.57 101.57 29.00 100.00
C 30.14 101.81 28.37 105.91 29.00 108.00 Z"/>
</g>
<g fill="#68575F" fill-opacity="1.00" stroke="None">
<path d="
M 129.00 120.00 
C 131.99 118.78 128.13 112.47 131.00 111.00
C 127.71 111.43 129.35 115.52 129.00 120.00 Z"/>
</g>
<g fill="#534C60" fill-opacity="1.00" stroke="None">
<path d="
M 149.00 114.00 
C 145.39 111.03 142.86 115.57 144.00 119.00
C 146.56 118.56 147.81 116.21 149.00 114.00
M 148.00 114.00 
C 145.74 118.60 143.05 113.99 148.00 114.00 Z"/>
</g>
<g fill="#7E778B" fill-opacity="1.00" stroke="None">
<path d="
M 154.00 113.00 
C 150.01 112.96 149.91 119.80 153.77 119.77 C 157.63 119.73 156.87 113.03 154.00 113.00
M 155.00 115.00 
C 156.21 116.21 153.94 119.27 152.32 117.66 C 150.70 116.05 153.88 113.88 155.00 115.00 Z"/>
</g>
<g fill="#888094" fill-opacity="1.00" stroke="None">
<path d="
M 175.00 114.00 
C 170.64 111.96 172.27 118.22 175.00 119.00
C 175.89 116.01 171.58 115.65 175.00 114.00 Z"/>
</g>
<g fill="#9896AA" fill-opacity="1.00" stroke="None">
<path d="
M 134.00 114.00 
C 131.10 117.91 135.21 120.27 134.00 114.00 Z"/>
</g>
<g fill="#8E8497" fill-opacity="1.00" stroke="None">
<path d="
M 142.00 119.00 
C 142.22 111.34 141.08 118.76 137.00 114.00
C 136.91 121.27 137.80 114.80 142.00 119.00 Z"/>
</g>
<g fill="#8D8699" fill-opacity="1.00" stroke="None">
<path d="
M 148.00 114.00 
C 143.05 113.99 145.74 118.60 148.00 114.00 Z"/>
</g>
<g fill="#81788D" fill-opacity="1.00" stroke="None">
<path d="
M 160.00 120.00 
C 164.55 119.53 162.08 113.17 159.00 114.00
C 160.81 117.02 159.53 117.67 160.00 120.00 Z"/>
</g>
<g fill="#1E1528" fill-opacity="1.00" stroke="None">
<path d="
M 155.00 115.00 
C 153.88 113.88 150.70 116.05 152.32 117.66 C 153.94 119.27 156.21 116.21 155.00 115.00 Z"/>
</g>
</svg>