<?xml version="1.0" standalone="no"?>
<!DOCTYPE svg PUBLIC "-//W3C//DTD SVG 20010904//EN"
 "http://www.w3.org/TR/2001/REC-SVG-20010904/DTD/svg10.dtd">
<svg version="1.0" xmlns="http://www.w3.org/2000/svg"
 width="200.000000pt" height="200.000000pt" viewBox="0 0 200.000000 200.000000"
 preserveAspectRatio="xMidYMid meet">

<g transform="translate(0.000000,200.000000) scale(0.100000,-0.100000)"
fill="#000000" stroke="none">
<path d="M0 1000 l0 -1000 1000 0 1000 0 0 1000 0 1000 -1000 0 -1000 0 0
-1000z m538 163 c19 -21 22 -34 20 -77 -2 -37 -7 -51 -18 -51 -10 0 -16 12
-18 35 -6 80 -27 104 -72 80 -18 -10 -20 -20 -20 -121 0 -150 -16 -179 -96
-179 -24 0 -43 8 -60 25 -21 22 -25 33 -22 78 2 38 7 52 18 52 11 0 16 -13 18
-48 4 -57 35 -87 71 -67 19 9 21 20 22 98 1 144 10 179 52 197 41 17 76 10
105 -22z m332 -47 c0 -34 0 -34 39 -29 33 5 44 1 65 -20 23 -23 26 -34 26
-102 0 -60 -3 -75 -15 -75 -12 0 -15 14 -15 65 0 52 -4 69 -20 85 -23 23 -33
24 -61 10 -16 -9 -19 -22 -19 -85 0 -68 -2 -75 -20 -75 -19 0 -20 7 -20 140 0
138 0 140 20 130 14 -7 20 -21 20 -44z m638 46 c9 -7 12 -42 10 -143 -3 -111
-6 -134 -18 -134 -13 0 -15 24 -18 143 -1 78 1 142 5 142 5 0 14 -4 21 -8z
m-1018 -113 c0 -71 -2 -80 -17 -77 -15 3 -19 16 -21 67 -3 73 1 91 23 91 12 0
15 -15 15 -81z m288 25 c18 -12 20 -19 12 -29 -9 -11 -16 -11 -39 3 -15 8 -35
12 -45 9 -30 -12 -13 -39 34 -56 33 -12 47 -24 55 -45 8 -25 6 -31 -18 -52
-34 -29 -67 -31 -98 -5 -19 16 -22 22 -11 32 9 10 15 10 24 1 7 -7 25 -12 40
-12 43 0 38 35 -7 50 -45 15 -65 35 -65 65 0 51 69 73 118 39z m404 5 c29 -16
48 -70 47 -133 -2 -55 -2 -56 -33 -56 -17 -1 -49 -1 -70 -2 -32 -1 -44 4 -69
32 -26 29 -29 38 -24 79 4 33 12 52 32 68 28 25 82 31 117 12z m239 -18 c74
-75 -5 -214 -97 -172 -35 15 -34 16 -34 -39 0 -38 -4 -50 -15 -50 -12 0 -15
20 -15 118 0 80 4 123 13 134 37 47 106 51 148 9z m294 4 c22 -21 25 -33 25
-99 0 -75 0 -75 -27 -76 -16 0 -46 -1 -67 -2 -54 -2 -96 44 -96 103 0 86 106
134 165 74z m-1360 -75 c0 -60 -3 -75 -15 -75 -12 0 -16 17 -18 78 -3 71 -1
78 15 75 15 -3 18 -14 18 -78z m982 -167 c-3 -10 -5 -4 -5 12 0 17 2 24 5 18
2 -7 2 -21 0 -30z m78 14 c4 5 5 2 1 -5 -6 -10 -11 -10 -21 -2 -10 8 -14 7
-18 -7 -3 -11 -5 -7 -6 11 -1 28 0 28 17 13 10 -10 22 -14 27 -10z m42 1 c-3
-8 -6 -5 -6 6 -1 11 2 17 5 13 3 -3 4 -12 1 -19z m158 -7 c-6 -5 -25 10 -25
20 0 5 6 4 14 -3 8 -7 12 -15 11 -17z m65 15 c-7 -7 -13 -7 -20 0 -6 6 -3 10
10 10 13 0 16 -4 10 -10z m70 -30 c0 -6 -7 -1 -15 10 -8 10 -15 23 -15 28 0 6
7 1 15 -10 8 -10 15 -23 15 -28z"/>
<path d="M1090 1040 c-41 -41 -16 -120 38 -120 30 0 62 34 62 65 0 29 -40 75
-65 75 -8 0 -24 -9 -35 -20z"/>
<path d="M1314 1035 c-21 -21 -25 -32 -20 -58 16 -83 119 -71 119 14 0 33 -16
53 -50 64 -17 4 -30 -1 -49 -20z"/>
<path d="M1612 1044 c-16 -11 -22 -25 -22 -53 0 -64 57 -94 100 -51 27 27 25
66 -5 95 -28 29 -42 31 -73 9z"/>
</g>
</svg>
